<svg width="22" height="21" viewBox="0 0 22 21" fill="none" xmlns="http://www.w3.org/2000/svg">
<path d="M15.6003 13.4689H14.6503L14.3136 13.1442C15.0651 12.2712 15.6144 11.2428 15.922 10.1327C16.2297 9.02264 16.2882 7.85826 16.0933 6.72292C15.5282 3.37999 12.7384 0.71045 9.37138 0.301602C8.18766 0.15185 6.98537 0.274873 5.85651 0.661255C4.72766 1.04764 3.70215 1.68714 2.85846 2.53082C2.01478 3.37451 1.37527 4.40002 0.988892 5.52888C0.602509 6.65773 0.479487 7.86002 0.629239 9.04374C1.03809 12.4107 3.70763 15.2005 7.05056 15.7657C8.1859 15.9606 9.35028 15.9021 10.4604 15.5944C11.5705 15.2867 12.5988 14.7375 13.4719 13.986L13.7966 14.3227V15.2727L18.9072 20.3833C19.4002 20.8763 20.2059 20.8763 20.6989 20.3833C21.1919 19.8902 21.1919 19.0846 20.6989 18.5915L15.6003 13.4689ZM8.38533 13.4689C5.39112 13.4689 2.9741 11.0519 2.9741 8.05769C2.9741 5.06348 5.39112 2.64647 8.38533 2.64647C11.3795 2.64647 13.7966 5.06348 13.7966 8.05769C13.7966 11.0519 11.3795 13.4689 8.38533 13.4689Z" fill="black"/>
</svg>
