<svg width="26" height="22" viewBox="0 0 26 22" fill="none" xmlns="http://www.w3.org/2000/svg">
<path d="M7.65189 21.8847C6.89031 21.8847 6.23896 21.6089 5.69783 21.0573C5.15671 20.5066 4.88615 19.8504 4.88615 19.0889V7.93571L2.6916 2.64474H1.27867C0.93796 2.64474 0.652568 2.5293 0.42249 2.29842C0.191611 2.06834 0.0761719 1.78295 0.0761719 1.44224C0.0761719 1.10153 0.191611 0.815741 0.42249 0.584862C0.652568 0.354785 0.93796 0.239746 1.27867 0.239746H3.50328C3.74378 0.239746 3.96424 0.309892 4.16465 0.450183C4.36507 0.590474 4.51538 0.770848 4.61559 0.991305L6.29908 5.04973H24.0659C24.5269 5.04973 24.8776 5.24012 25.1181 5.62091C25.3586 6.0017 25.3686 6.39251 25.1482 6.79334L21.7211 13.4973C22.7432 13.6576 23.6002 14.1286 24.292 14.9102C24.983 15.6918 25.3286 16.6137 25.3286 17.6759C25.3286 18.8383 24.9229 19.8304 24.1116 20.6521C23.2996 21.4738 22.3123 21.8847 21.1499 21.8847C19.9674 21.8847 18.9706 21.4738 18.1593 20.6521C17.3472 19.8304 16.9412 18.8383 16.9412 17.6759C16.9412 17.2751 16.9913 16.9043 17.0915 16.5636C17.1917 16.2229 17.332 15.8922 17.5123 15.5716L13.5742 15.2108L9.96669 20.622C9.70615 21.0229 9.37025 21.3335 8.959 21.554C8.54855 21.7744 8.11285 21.8847 7.65189 21.8847ZM19.1357 13.3169L22.1119 7.45471L7.29114 7.48478L8.79426 11.0622C8.95459 11.463 9.21032 11.7985 9.56145 12.0687C9.91178 12.3396 10.3174 12.4952 10.7784 12.5353L19.1357 13.3169ZM7.68195 19.4496C7.72203 19.4496 7.81222 19.3995 7.95251 19.2993L10.8686 14.9703C9.88653 14.8701 9.11492 14.6344 8.55376 14.2632C7.9926 13.8929 7.57172 13.5073 7.29114 13.1064V19.1189C7.29114 19.2191 7.33122 19.2993 7.41139 19.3594C7.49156 19.4195 7.58174 19.4496 7.68195 19.4496ZM21.1198 19.4797C21.6409 19.4797 22.0718 19.3041 22.4125 18.953C22.7532 18.6026 22.9236 18.177 22.9236 17.6759C22.9236 17.1548 22.7532 16.7239 22.4125 16.3832C22.0718 16.0425 21.6409 15.8722 21.1198 15.8722C20.6188 15.8722 20.1931 16.0425 19.8428 16.3832C19.4917 16.7239 19.3161 17.1548 19.3161 17.6759C19.3161 18.177 19.4917 18.6026 19.8428 18.953C20.1931 19.3041 20.6188 19.4797 21.1198 19.4797Z" fill="black"/>
</svg>
