<svg width="20" height="20" viewBox="0 0 20 20" fill="none" xmlns="http://www.w3.org/2000/svg">
<path d="M9.9559 9.8597C8.63315 9.8597 7.5008 9.38873 6.55885 8.44677C5.61689 7.50482 5.14592 6.37247 5.14592 5.04973C5.14592 3.72698 5.61689 2.59463 6.55885 1.65268C7.5008 0.710723 8.63315 0.239746 9.9559 0.239746C11.2786 0.239746 12.411 0.710723 13.3529 1.65268C14.2949 2.59463 14.7659 3.72698 14.7659 5.04973C14.7659 6.37247 14.2949 7.50482 13.3529 8.44677C12.411 9.38873 11.2786 9.8597 9.9559 9.8597ZM17.1709 19.4797H2.74093C2.07956 19.4797 1.51358 19.2444 1.043 18.7738C0.571626 18.3024 0.335938 17.736 0.335938 17.0747V16.1127C0.335938 15.4313 0.511502 14.8048 0.86263 14.2332C1.21296 13.6624 1.67872 13.2267 2.25993 12.9261C3.50251 12.3048 4.76513 11.8386 6.04779 11.5276C7.33045 11.2173 8.63315 11.0622 9.9559 11.0622C11.2786 11.0622 12.5813 11.2173 13.864 11.5276C15.1467 11.8386 16.4093 12.3048 17.6519 12.9261C18.2331 13.2267 18.6988 13.6624 19.0492 14.2332C19.4003 14.8048 19.5759 15.4313 19.5759 16.1127V17.0747C19.5759 17.736 19.3406 18.3024 18.87 18.7738C18.3986 19.2444 17.8322 19.4797 17.1709 19.4797ZM2.74093 17.0747H17.1709V16.1127C17.1709 15.8922 17.116 15.6918 17.0061 15.5114C16.8955 15.3311 16.75 15.1908 16.5696 15.0906C15.4874 14.5494 14.3951 14.1434 13.2928 13.8724C12.1905 13.6023 11.0782 13.4672 9.9559 13.4672C8.83357 13.4672 7.72126 13.6023 6.61897 13.8724C5.51669 14.1434 4.42442 14.5494 3.34217 15.0906C3.1618 15.1908 3.0167 15.3311 2.90687 15.5114C2.79624 15.6918 2.74093 15.8922 2.74093 16.1127V17.0747ZM9.9559 7.45472C10.6173 7.45472 11.1836 7.21903 11.655 6.74765C12.1256 6.27707 12.3609 5.7111 12.3609 5.04973C12.3609 4.38835 12.1256 3.82238 11.655 3.3518C11.1836 2.88042 10.6173 2.64474 9.9559 2.64474C9.29452 2.64474 8.72855 2.88042 8.25797 3.3518C7.7866 3.82238 7.55091 4.38835 7.55091 5.04973C7.55091 5.7111 7.7866 6.27707 8.25797 6.74765C8.72855 7.21903 9.29452 7.45472 9.9559 7.45472Z" fill="black"/>
</svg>
